<svg xmlns="http://www.w3.org/2000/svg" width="60" height="61" fill="none" viewBox="0 0 60 61">
  <g clip-path="url(#a)">
    <path fill="#512E17" fill-rule="evenodd" d="M29.298 12.211a1.846 1.846 0 0 1 2.208.268.263.263 0 0 1 .075.044s5.057 4.932 3.885 15.46c-.436 3.915.381 8.522 2.314 11.848a1.863 1.863 0 0 1-2.047 2.74c-4.155-1.06-9.768-3.993-11.99-11.835-2.164-7.643.31-15.347 5.555-18.525ZM44.15 41.903a1.894 1.894 0 0 1-2.273-.27c-.036-.006-.048-.018-.048-.018s-5.057-4.932-3.885-15.46c.44-3.952-.398-8.61-2.37-11.942a1.809 1.809 0 0 1 1.971-2.677c4.167 1.029 9.877 3.94 12.122 11.866 2.159 7.625-.299 15.31-5.516 18.501Z" clip-rule="evenodd"/>
    <path fill="#422613" fill-rule="evenodd" d="M36.766 49.299a1.828 1.828 0 0 0 .248-2.187.334.334 0 0 0-.033-.094s-3.623-6.065-14.135-7.37c-3.896-.483-8.171-2.338-10.958-4.976a1.881 1.881 0 0 0-3.17 1.378c.079 4.284 1.643 10.395 8.728 14.36 6.938 3.885 15.014 3.262 19.32-1.111Zm.026-5.912c.805-.23 1.347-.537 1.842-1.255.368.865.453 1.697.421 2.383a.737.737 0 0 1-1.307.388c-.322-.346-.646-.82-.956-1.516ZM21.857 24.343c-1.163 8.315 4.024 13.435 3.573 13.38-10.513-1.306-14.364-7.431-14.364-7.431l-.054-.09a1.854 1.854 0 0 1 .231-2.195c2.567-2.576 6.439-3.857 10.614-3.664Z" clip-rule="evenodd"/>
  </g>
  <defs>
    <clipPath id="a">
      <path fill="#fff" d="M0 .5h60v60H0z"/>
    </clipPath>
  </defs>
</svg>
